<svg xmlns="http://www.w3.org/2000/svg" width="48" height="48" viewBox="0 0 48 48" role="img" aria-label="my-extbrain">
  <!-- favicon 小尺寸版 -->
  <rect x="9.5" y="9.5" width="36" height="36" rx="9.5" fill="#17171c"/>
  <rect x="2.5" y="2.5" width="36" height="36" rx="9.5" fill="#ffdc58" stroke="#17171c" stroke-width="3"/>
  <g transform="translate(7.48 7.02) scale(1.085)">
    <mask id="n-fv">
      <rect x="0" y="0" width="24" height="24" fill="#fff"/>
      <g stroke="#000" stroke-width="1.2" fill="none" stroke-linecap="round" transform="translate(-0.275,0)"><path d="M8.2 6.9C6.6 7.4 5.4 8.7 5.1 10.3"/></g>
      <g stroke="#000" stroke-width="1.2" fill="none" stroke-linecap="round" transform="translate(24.275,0) scale(-1,1)"><path d="M8.2 6.9C6.6 7.4 5.4 8.7 5.1 10.3"/></g>
      
    </mask>
    <g mask="url(#n-fv)" fill="#17171c">
      <g transform="translate(-0.275,0)"><path d="M12 5.0a3.4 3.4 0 1 0-6.1.6 4.6 4.6 0 0 0-2.3 6.3 4.3 4.3 0 0 0 .9 5.9A4.4 4.4 0 1 0 12 17.6Z"/></g>
      <g transform="translate(24.275,0) scale(-1,1)"><path d="M12 5.0a3.4 3.4 0 1 0-6.1.6 4.6 4.6 0 0 0-2.3 6.3 4.3 4.3 0 0 0 .9 5.9A4.4 4.4 0 1 0 12 17.6Z"/></g>
    </g>
  </g>
</svg>
